<?xml version="1.0" standalone="no"?>
<!DOCTYPE svg PUBLIC "-//W3C//DTD SVG 20010904//EN"
 "http://www.w3.org/TR/2001/REC-SVG-20010904/DTD/svg10.dtd">
<svg version="1.0" xmlns="http://www.w3.org/2000/svg"
 width="1080.000000pt" height="1080.000000pt" viewBox="0 0 1080.000000 1080.000000"
 preserveAspectRatio="xMidYMid meet">

<g transform="translate(0.000000,1080.000000) scale(0.100000,-0.100000)"
fill="#000000" stroke="none">
<path d="M2915 8001 c-23 -10 -49 -33 -60 -52 -19 -33 -20 -55 -23 -774 -2
-407 0 -944 3 -1193 7 -447 8 -454 29 -479 19 -21 33 -26 92 -30 90 -7 128 10
143 65 6 20 11 112 11 203 l0 166 84 5 c90 5 123 18 153 65 17 25 19 95 27
985 7 775 6 964 -5 989 -23 56 -69 69 -254 69 -134 0 -166 -3 -200 -19z m275
-111 c0 -33 -4 -42 -28 -54 -28 -15 -68 -53 -61 -60 2 -2 23 -13 46 -25 49
-24 62 -55 43 -102 -23 -55 -103 -96 -135 -69 -23 19 -18 36 21 73 l36 34 -42
24 c-24 13 -48 31 -53 40 -24 39 26 114 102 154 64 33 71 32 71 -15z m-109
-486 c-2 -67 0 -104 8 -108 16 -10 30 33 38 122 l8 77 35 0 35 0 -2 -75 c-4
-137 -46 -220 -111 -220 -37 0 -78 45 -88 97 -8 40 0 186 11 203 4 6 21 10 38
8 l32 -3 -4 -101z m109 -293 c0 -33 -4 -40 -29 -51 -54 -22 -78 -70 -36 -70
23 0 75 -51 75 -73 0 -38 -38 -87 -83 -107 -38 -17 -43 -18 -59 -3 -25 22 -22
37 10 65 47 39 47 46 -3 69 -67 32 -71 91 -10 149 28 26 116 70 127 64 5 -3 8
-22 8 -43z m-93 -431 c-5 -47 -4 -60 7 -60 8 0 17 16 20 38 12 66 16 72 45 72
53 0 54 -16 20 -227 -11 -70 -13 -73 -39 -73 -30 0 -40 19 -40 78 0 50 -25 40
-36 -15 -8 -45 -11 -48 -41 -51 -22 -2 -33 1 -34 10 -4 64 17 241 32 271 6 10
21 17 41 17 l31 0 -6 -60z m42 -339 c10 -7 12 -29 7 -102 -14 -193 -19 -209
-67 -194 -17 6 -19 17 -19 88 0 173 26 241 79 208z"/>
</g>
</svg>
